<?xml version="1.0" encoding="UTF-8" standalone="no"?>
<!-- Generator: Adobe Illustrator 18.1.1, SVG Export Plug-In . SVG Version: 6.00 Build 0)  -->

<svg
   xmlns:dc="http://purl.org/dc/elements/1.1/"
   xmlns:cc="http://creativecommons.org/ns#"
   xmlns:rdf="http://www.w3.org/1999/02/22-rdf-syntax-ns#"
   xmlns:svg="http://www.w3.org/2000/svg"
   xmlns="http://www.w3.org/2000/svg"
   xmlns:sodipodi="http://sodipodi.sourceforge.net/DTD/sodipodi-0.dtd"
   xmlns:inkscape="http://www.inkscape.org/namespaces/inkscape"
   version="1.1"
   id="Capa_1"
   x="0px"
   y="0px"
   viewBox="0 0 25.999 25.999"
   style="enable-background:new 0 0 25.999 25.999;"
   xml:space="preserve"
   sodipodi:docname="icon.svg"
   inkscape:version="0.92.5 (2060ec1f9f, 2020-04-08)"><metadata
   id="metadata41"><rdf:RDF><cc:Work
       rdf:about=""><dc:format>image/svg+xml</dc:format><dc:type
         rdf:resource="http://purl.org/dc/dcmitype/StillImage" /></cc:Work></rdf:RDF></metadata><defs
   id="defs39" /><sodipodi:namedview
   pagecolor="#ffffff"
   bordercolor="#666666"
   borderopacity="1"
   objecttolerance="10"
   gridtolerance="10"
   guidetolerance="10"
   inkscape:pageopacity="0"
   inkscape:pageshadow="2"
   inkscape:window-width="1366"
   inkscape:window-height="705"
   id="namedview37"
   showgrid="false"
   inkscape:zoom="9.077272"
   inkscape:cx="12.9995"
   inkscape:cy="12.9995"
   inkscape:window-x="-8"
   inkscape:window-y="-8"
   inkscape:window-maximized="1"
   inkscape:current-layer="Capa_1" />
<g
   id="g4"
   style="fill:#6699ff">
	<path
   style="fill:#6699ff"
   d="M15.536,14.894l-4.43-4.43c1.243-0.929,3.011-0.841,4.142,0.288   C16.377,11.883,16.465,13.65,15.536,14.894z M4.651,16.854L2.725,18.78l4.496,4.496l1.926-1.927L4.651,16.854z M21.349,9.147   l1.926-1.926l-4.496-4.495l-1.926,1.926L21.349,9.147z M0.799,16.853l1.284,1.285l2.568-2.568l5.78,5.779l-2.568,2.569l1.284,1.283   c1.064,1.064,2.788,1.064,3.853,0l5.778-5.778l-3.243-3.244c-1.604,1.28-3.94,1.197-5.425-0.289   c-1.486-1.484-1.569-3.82-0.289-5.425L6.578,7.222L0.799,13C-0.266,14.064-0.266,15.788,0.799,16.853z M10.752,15.248   c1.13,1.129,2.898,1.217,4.143,0.288l-4.431-4.43C9.535,12.351,9.623,14.118,10.752,15.248z M13,0.799l-5.778,5.78l3.242,3.242   c1.604-1.279,3.94-1.196,5.426,0.289s1.568,3.821,0.289,5.426l3.243,3.243L25.201,13c1.064-1.064,1.064-2.788,0-3.853l-1.284-1.284   l-2.568,2.568l-5.78-5.779l2.568-2.568l-1.284-1.285C15.788-0.266,14.064-0.266,13,0.799z"
   id="path2" />
</g>
<g
   id="g6">
</g>
<g
   id="g8">
</g>
<g
   id="g10">
</g>
<g
   id="g12">
</g>
<g
   id="g14">
</g>
<g
   id="g16">
</g>
<g
   id="g18">
</g>
<g
   id="g20">
</g>
<g
   id="g22">
</g>
<g
   id="g24">
</g>
<g
   id="g26">
</g>
<g
   id="g28">
</g>
<g
   id="g30">
</g>
<g
   id="g32">
</g>
<g
   id="g34">
</g>
</svg>